<?xml version="1.0" encoding="UTF-8"?>
<svg id="_レイヤー_1" data-name="レイヤー_1" xmlns="http://www.w3.org/2000/svg" version="1.1" viewBox="0 0 586.98 384">
  <!-- Generator: Adobe Illustrator 30.3.0, SVG Export Plug-In . SVG Version: 2.1.3 Build 182)  -->
  <path d="M497.97,232.12c-.44-.61-.92-.76-1.55-1.02-.39-.22-.71-.4-1.37-.55l-2.22-2.13c-.64-.14-.98-.3-1.37-.55l-2.08-1.35-2.59-1.69-3.57-2.27-3.73-2.49c-.37-.25-.85-.49-1.27-.68l-2.17-1.47c-.49-.33-.8-.49-1.54-.64l-1.15-1.24c-1,.04-1.53-.81-2.29-1.41l-1.44-.71-.91-.24c-.19-.05-.3-.43-.41-.7l-1.91,1.47c-.5.17-.97.35-1.28.55l-2.27,1.5c-.39.26-1.11.35-1.48.92-.3.47-.7.67-1.3.74l-1.69,1.24-1.23.69-2.38,1.5-2.19,1.43-1.47.93-1.42.99-2.21,1.47-1.42.74-2.13,1.38-1.84,1.25-2,1.33-1.39.69-2.2,1.51-2.16,1.48c-.76.34-1.5.86-2.12,1.45-1.28.05-1.14.9-2.98,1.86l-1.53.8-2.06,1.38-3.91,2.58-1.17.64-2.31,1.53-2.19,1.46-1.39.7c-.48.24-1.13.41-1.4.82-.44.66-1.04.68-1.52,1l-2.32,1.52-1.07.58-2.45,1.66-1.99,1.37-2.31,1.49-2.36,1.53-2.2,1.4-1.38.72c-.81.63-1.46,1.13-2.26,1.51l-1.71,1.17-2.05,1.29c-.59.37-1.35,1.05-2.01,1.41l-1.52.82-2.21,1.43-2.06,1.37-2.44,1.58-2.49,1.58-5.33,3.39c-.78.5-1.45.96-2.19,1.65-.51.19-1.2.41-1.63.97-.37.48-.88.62-1.42.88l-1.41.67-2.31,1.68-5.62,3.61-3.65,2.28-2.35,1.52-1.26.84-3.39,2.2-1.17.66-1.5,1.02c-.49.33-1.22.69-1.69.88-.7.7-1.3,1.25-2.16,1.44l-1.05.69-1.82,1.22-1.92,1.25-2.7,1.79c-2.3,1.52-2.55.36-4.87-.98l-1.19-.69-2.37-1.51-1.86-1.59.06-.96c.01-.21.81-.02.98-.15l1.71-1.25,1.12-.67,2.35-1.47,2.3-1.46c.77-.49,1.22-.93,2.09-1.42l2.29-1.29,2.14-1.46,2.26-1.49,5.3-3.37,2.37-1.51,1.93-1.34c1.39.09,1.3-1.74,2.88-1.57l1.24-1.29c.68-.15,1.05-.32,1.51-.63l2.19-1.43,2.34-1.51,2.32-1.49,1.88-1.1,2.45-1.61,2.13-1.28,1.27-1.24c.67-.14,1.01-.35,1.5-.69l1.65-1.14c.27-.19.71-.35,1.18-.48l2.17-1.58,3.36-2.22,1.27-.7,1.43-.83,2.18-1.49,2.21-1.38,2.56-1.74,2.83-1.73,2.33-1.51,1.95-1.32,1.29-.59c.52-.23,1.08-.43,1.41-.85.46-.59.92-.81,1.56-.91.69-.61,1.49-1.18,2.27-1.6l1.04-.58c.98-.54,1.66-1.37,2.63-1.94l1.84-1.08,2.33-1.51,2.45-1.6,2.05-1.34,2.21-1.41,1.53-.77c.65-.67,1.33-1.3,2.14-1.44l1.55-1.1,2.18-1.46,1.22-.66,2.36-1.51,2.16-1.41,2.07-1.36,2.57-1.67,2.29-1.37,3.5-2.27c.35-.23,1.01-.49,1.27-.83.48-.63.85-.83,1.6-.88l1.25-1.27c1.15-.39,2.62-1,2.9-1.47.41-.68,1.25-.71,1.61-1.01.67-.53,1.2-.98,1.82-1.37l3.86-2.42,3.65-2.29c.8-.5,1.67-.82,2.27-1.59l.85-.35c.64-.64,1.33-1.11,2.15-1.5l1.44-.7c.67-.63,1.44-1.2,2.21-1.52l2.31-1.58,1.29-.93c.85-.13,1.47-.73,2.14-1.45l1.53-.74,2.21-1.43,2.16-1.42,2.34-1.53,2.42-1.42,5.81-3.8,1.86-1.36,1.46-.76c.47-.24,1.1-.4,1.4-.81.46-.64.86-.85,1.6-.89l1.27-1.25,2.44-1.44,2.17-1.37c.71-.45,1.17-.83,1.97-1.32l2.33-1.41,2.22-1.45,2.17-1.44,2.16-1.41,2.51-1.52.95-.55,1.9-1.34c1.37.06,1.28-1.69,2.88-1.56l1.24-1.32c.69-.15,1.06-.32,1.52-.62l2.08-1.36,2.28-1.55,1.44-.93,3.37-2.18,1.68-.96,2.49-1.61,2.08-1.34c.41-.27.7-.41,1.38-.57l1.37-1.32c.66-.18,1.03-.36,1.51-.7l2.71-1.89c.97-.68,1.32-.37,1.69-1.13.07-.14.4.43.55.47,1.77.57,2.06,1.79,3.33,1.77l1.24,1.24,1.53.63,1.35.7c.3.16.63.99.55,1.32-.12.46-1.63,1.72-2.66,2.01l-1.38.86-2.19,1.42-3.21,2.08-1.33.84-1.2.73-2.57,1.49-1.16,1.16c-1.38-.04-1.05.92-3.01,1.74l-1.49.63-1.18,1.12-2.39,1.43-2.44,1.58-2.03,1.36-2.29,1.3-1.96,1.26-1.61,1.14-6.03,3.86-2.16,1.4c-1.33-.04-1.25,1.63-2.85,1.59l-1.37,1.34c-.69.15-.98.29-1.39.56l-2.18,1.43-2.07,1.37-2.47,1.59-1.37.98c-.16.12-.47.81-.31.93l.81.6,2.3,1.55,1.45.93,2.36,1.64c.45.31,1.08.34,1.52.99.27.4.91.6,1.4.83l1.42.67,1.9,1.44,6.15,3.98,1.99,1.35,2.56,1.47,2.14,1.43,1.96,1.27,2.64,1.63.92.54,1.98,1.33,1.47,1.03c.35.24.78.41,1.34.58l1.29,1.22,2.25,1.39,1.38.72,2.11,1.38,2.44,1.57,2.31,1.54,1,.68c.59.26,1.13.58,1.7.97l1.31.9,2.63,1.44c.17.52.15,1.52-.09,2.07-.63.4-1.03.59-1.77.88-.29.4-.94.65-1.52.58-.38-.05-.82-.46-1.3-.78l-1.45-.98-1.89-1.27-2.16-1.38-2.85-1.73-1.15-.72c-.61-.5-1.22-.88-1.87-1.29l-1.9-1.18-2.32-1.54-1.28-.75-2.22-1.46c-.34-.22-1.13-.39-1.38-.78-.43-.67-.85-.88-1.6-.9l-1.24-1.28c-1.11-.33-2.52-.95-3.04-1.6-.4-.5-.81-.69-1.48-.74l-1.16-1.17-2.57-1.5-1.17-.78-3.08-1.98-2.52-1.52-1.89-1.29-2.18-1.48c-.41-.28-.9-.48-1.49-.62-.61-.67-1.39-1.33-2.28-1.5-.58-.8-1.25-1.35-2.08-1.47l-1.7-1.22-1.49-1-1.25-.72-1.23-.78c-.9-.57-1.48-.58-2.38-.05-.61.36-1.06.66-1.64,1.29-.51.55-1.75.59-3.27,2.19-.02.59.62,1.38,1.16,1.72l2.31,1.46,2.05,1.35,2.59,1.7,2.15,1.23,3.95,2.62,2.58,1.68,2.12,1.29,1.29,1.2,1.49.63c1.91.81,1.7,1.74,2.8,1.72l1.92,1.32,2.01,1.33,1.53.86,4.22,2.81,2.19,1.4,1.3.86,2.24,1.43,1.44.79,3.19,2.17c.41.28,1.1.39,1.47.96.32.49.84.68,1.46.71l1.26,1.28c.67.16,1.07.34,1.52.64l2.08,1.38,2.26,1.54c.14.1.36.37.44.5s-.15.64-.3.73l-2.44,1.49c-.28.17-.82.5-1.04.39l-.95-.48c-.3-.15-.81-.43-1.05-.61l-1.95-1.38-3.36-2.04-1.98-1.28-2.33-1.57-1.95-1.33c-1.23.05-1.23-1.21-2.33-1.54-.47-.14-.76-.27-1.02-.44l-2.2-1.44-2.27-1.51-1.44-.96-3.21-2-3.92-2.63-4.27-2.64-.98-.69c-1.61-.1-1.45-1.6-2.98-1.71l-1.79-1.24-1.93-1.28-2.25-1.49-2.17-1.45-2.14-1.44-2.45-1.39-1.78-1.22-2.43-1.59c-.9-.59-1.6-.7-2.57.03l-.94.71c-1.26.42-2.7,1.64-2.79,2.47-.12,1.15,1.7,1.05,3.36,2.8l1.25.68,3.27,2.09,2.13,1.53,1.45.75c.44.22,1.12.44,1.4.81.48.64.87.84,1.6.9l1.27,1.25,2.34,1.34,1.3.86,1.66,1.07,1.16.71,2.34,1.51,2.33,1.52,2.17,1.43,2.03,1.34,2.34,1.52c.39.25.75.45,1.26.65l1.95,1.31,2.33,1.56,1.97,1.34,1.11.55,2.37,1.52,2.15,1.4,2.36,1.54,1.08.63,2.32,1.47c1,.63,1.91,1.24,2.73,2.24l-2.31,1.81-1.98,1.3-1.17.55c-.81.25-1.38.67-2,1.45-.39.3-1.47.3-1.89.06l-1.25-.69-2.38-1.58c-.3-.2-.66-.35-1.18-.5l-1.91-1.37-.91-.51-2.37-1.46-2.45-1.59-2.03-1.34-2.47-1.35c-.6-.73-1.26-1.14-2-1.4l-2.04-1.39-1.31-.82-2.53-1.75c-.32-.22-1.08-.38-1.37-.77Z"/>
  <path d="M272.73,326.59c1.89-.74,1.56-1.81,3.16-1.81.52-.82,1.26-1.4,2.07-1.48.7-.66,1.42-1.14,2.17-1.55l1.08-.59,1.53-1.07c.45-.32.77-.55.79-1.07.01-.34-.39-.89-.71-1.1l-3.06-2.06c-.36-.24-1.02-.63-1.44-.57-.37.05-.87.47-1.29.74l-2.05,1.34-2.21,1.41-1.26.85-2.71,1.66-2.16,1.39-2.35,1.57-1.89,1.35c-.95-.17-1.33.97-1.89,1.23-.65.3-1.14.5-1.6.8l-2.09,1.36-2.58,1.67-2.52,1.66-1.51.88-2.42,1.46-1.19.72-2.5,1.56-2.12,1.29-1.27,1.22-1.51.62c-1.95.8-1.69,1.82-2.84,1.71l-1.61,1.19-2.26,1.47c-.75.48-1.39.77-2.04,1.44-.78.24-1.54.74-2.12,1.43l-2.43,1.28-1.6,1.14c-.82.58-1.45.8-2.33,1.55l-1.99-1.3c-.51-.33-1.4-.64-1.63-1.22-.06-.15-.05-.79.09-.87l.74-.4,2.48-1.62,2.18-1.43c.41-.27.7-.42,1.4-.56l1.37-1.35c1.54.08,1.4-1.52,2.99-1.66l1.82-1.25,2.14-1.46.92-.54,2.53-1.51,2.16-1.46,1.4-.73,2.19-1.37,2.47-1.62,2.32-1.5,3.38-2.15,2.14-1.47,1.32-.62,1.46-1.01c.56-.39,1.01-.67,1.66-.8.63-.7,1.35-1.38,2.24-1.71l4.11-2.64,4.65-3.05c.44-.29.91-.57,1.38-.78.76-.56,1.46-1.05,2.33-1.47.49-.24,1.3-1.29.92-1.66l-1.69-1.65c-.74-.21-1.16-.31-1.63-.92-.34-.44-.87-.58-1.4-.84-.44-.22-.88-.61-1.4-.59-.57.01-1.01.41-1.56.78l-1.45.99-1.66,1.13c-1.36-.06-1.3,1.72-2.88,1.59l-1.24,1.28c-.66.18-1.07.33-1.51.62l-2.2,1.48-1.41.98-1.37.83-2.17,1.44-2.49,1.6-1.19.71-2.46,1.4-1.27,1.26c-1.36-.07-1.03.89-2.99,1.72l-1.5.63-1.17,1.12-2.41,1.43-2.44,1.58-1.77,1.22-2.55,1.45-2.08,1.39-1.4.72-2.27,1.48-3.06,2.04-1.21.85c-.34.24-.77.42-1.28.6l-1.53,1.04-2.54,1.72-1.28.8-1.51-.91c-.52-.32-.79-.47-1.58-.7-.41-.18-.44-1.41-.11-1.79.52-.59,1.02-.95,1.83-1.01l1.25-1.3c.69-.16,1.04-.33,1.51-.64l2.07-1.34,2.48-1.61,1.24-.68,2.36-1.42c1.25-.75,2.5-1.45,3.57-2.43l.98-.28c.49-.61,1.24-1.07,2.03-1.36l1.26-1.25c.62-.18.95-.33,1.38-.62l5.01-3.39.96-.53,2.97-1.86,2.27-1.48,2.14-1.51,1.43-.71c.76-.38,1.4-.92,2.1-1.51l1.34-.75,3.13-1.99c.79-.5,1.54-1.04,2.29-1.7.33-.13,1.02-.4,1.31-.6l1.48-1.01c.57-.39.97-.65,1.66-.79l1.26-1.27c.66-.16,1.03-.34,1.51-.68.73-.51,1.95-.57,1.95-1.89l-1.29-1.09-2.09-1.3-2.14-1.45-2.19-1.25-2.16-1.43-2.22-1.42-1.67-1.27c-.54-.16-.92-.3-1.22-.51l-1.48-1.01c-.58-.4-.94-.66-1.65-.8l-1.28-1.23-2.12-1.3-2.6-1.68-1.95-1.14-2.09-1.38-2.64-1.65-1.98-1.36-2.06-1.37-2.18-1.44c-.42-.28-.67-.42-1.4-.55l-1.36-1.33c-.69-.18-1.09-.41-1.65-.81l-1.32-.93-3.77-2.41-3.11-1.98-1.26-.85-2.34-1.51-3.55-2.18-1.71-1.15-1.78-1.17-2.41-1.59c-.45-.3-1.06-.4-1.49-.97-.33-.44-.88-.64-1.4-.86l-1.5-.64-1.29-1.21-2.11-1.29-2.46-1.59-1.76-1.02-2.43-1.57-2.64-1.68-1.87-1.27-2.03-1.35-2.33-1.52c-.5-.32-.77-.52-1.5-.68l-1.24-1.22c-.65-.21-1.05-.38-1.51-.63l-1.27-.69-1.48-1.02-1.96-1.34-1.25-.62c-.83-.41-1.51-.86-2.16-1.5l-.82-.36c-.57-.57-1.16-.9-1.84-1.32l-1.9-1.18-2.43-1.57-3.93-2.47-2.51-1.53-1.19-1.11-1.51-.65c-.46-.2-1.1-.41-1.38-.84-.43-.66-1.21-.74-1.61-1.03l-2.1-1.52-3.22-2.09-1.32-.73-1.24-.79-2.35-1.54-2.16-1.42-2.04-1.34-2.49-1.6c-.31-.2-.88-.44-1.38-.61-.52-.18-.53-1.75-.01-1.91.65-.19,1.12-.38,1.52-.65l2.23-1.49c.35-.23,1.07-.41,1.38-.79.42-.52.88-.79,1.35-1.07,1.26-.75,2.33-.75,3.52.14l1.87,1.4,1.21.7c.42.25,1.14.41,1.4.8.42.66,1.06.68,1.51.97l2.44,1.61,1.52,1.04c.64.44,1.34.81,1.86,1.33l.96.27c1.06,1.08,2.46,1.74,3.7,2.55l2,1.3,4.09,2.66,1.02.55c.77.42,1.48.91,2.19,1.54.63.1,1.21.33,1.62,1.01.36.35.77.53,1.3.68l1.79,1.23,1.17.69c.4.24,1,.42,1.31.68l1.81,1.53,1.28.64,2.46,1.59,1.91,1.27,2.28,1.52,2.3,1.32,2.05,1.38,1.3.82,2.53,1.74,1.13.78c1.66-.02,1.24.97,3.22,1.76l1.39.56,1.4,1.3c.86.36,1.53.82,2.15,1.45l.96.28,2.11,1.53,2.32,1.49,1.2.7,2.18,1.46,2.38,1.54c.33.21,1.03.48,1.43.61,1.22,1.25,2.61,2.28,4.18,2.86l1.95,1.31,2.32,1.56,1.96,1.33,1.1.56,2.49,1.58,2.03,1.37,2.41,1.38,2.59,1.93,1.46.82,2.23,1.43,2.54,1.49,1.16,1.17c1.36-.07,1.04.92,3.01,1.74l1.5.62c.58.61,1.3,1.33,2.11,1.62l4.13,2.68,1.92,1.32,1.88,1.07,2.17,1.44,2.39,1.52c.35.22.99.5,1.39.66l2.92,2.21c.45.34.81.5,1.51.65l1.23,1.26c.74.12,1.07.4,1.67.8l1.48.98,1.18.68,3.5,2.27,1.04.67,2.44,1.62,3.59,2.16,1.68,1.14,4.28,2.77,1.16.67,1.49.99c.59.4.93.67,1.66.8l1.23,1.26c.76.11.96.35,1.51.72l3.48,2.34,1.97,1.3,1.09.6,5.18,3.39,2.26,1.5c.34.23,1.07.51,1.44.68.73.54,1.27,1.28,2.22,1.39l1.26,1.28c.61.15,1,.31,1.37.58l2.88,2.01c.25.18.55.28,1.12.4l1.35,1.33c.7.17,1.11.38,1.61.93.34.38.95.52,1.42.81l1.26.8,2.42,1.63,2.07,1.32,1.29.62,2.46,1.64,1.29.64,1.6,1.11,2.21,1.47c.43.29,1.09.37,1.49.97.28.42.73.59,1.29.7l1.73,1.22,1.1.67,2.47,1.54,2.2,1.41,2.03,1.36,2.41,1.64,1.95,1.04,2.36,1.59,3.99,2.57c.36.23,1.19.86.66,1.39s-1.39,1.2-1.95,1.51c-1.37,0-1.22,1.54-2.99,1.69-.6.71-1.28,1.36-2.14,1.49-.31.32-.88.68-1.27.63-.57-.07-.93-.33-1.46-.69l-3.07-2.13-1.33-.64-1.46-.99c-.6-.41-.93-.68-1.67-.79l-1.26-1.3c-.94-.09-1.5-.83-2.21-1.39-.39-.16-1.1-.44-1.42-.65l-2.2-1.44-2.34-1.52-2.48-1.67-2.75-1.78-1.09-.64-2.57-1.5-1.19-1.16c-.56-.03-1.16-.24-1.43-.7-.38-.63-1.09-.67-1.51-.95l-2.41-1.64-2.06-1.37-1.65-1.09-1.12-.59-2.5-1.62-1.26-.64-2.21-1.38-2.01-1.4-.93-.55-1.36-.79-2.21-1.39-1.4-.97-2.38-1.67-.95-.21-.38-.56c-.11-.16-.7-.03-.84.1l-.91.84c-.25.23-.85.42-1.35.53l-1.28,1.25-2.26,1.39-1.38.7c-.82.42-1.47.93-2.19,1.51l-1.31.8-2.52,1.62-1.49.88-1.4.77-2.19,1.47c-.41.28-.69.43-1.39.56l-1.37,1.29c-.61.18-.94.34-1.38.64l-4.99,3.38-.99.52-5.11,3.3-2.25,1.51-2.45,1.39-1.99,1.35-5.31,3.35-2.73,2.02-1.43.72c-.45.23-1.12.42-1.39.82-.43.64-1.05.69-1.5,1l-2.32,1.56c-.36.24-.91.56-1.29.54-.52-.02-1.03-.33-1.47-.65l-3.07-2.24c-.81-.08-1.43-.68-2-1.41-.52-.08-1.33-.44-1.75-.85-.17-.17-.23-.78-.12-.99.13-.25.71-.45.97-.63l2.18-1.49,2.47-1.53,1.02-.67,2.78-1.75,1.86-1.26,2.16-1.47,2.2-1.41,1.49-.67,1.25-1.24c.71-.16,1.08-.41,1.65-.8l1.45-.99,1.65-1.12c.5-.2.83-.36,1.17-.59l2.44-1.6,2.04-1.33,2.17-1.5,1.57-.75,1.95-1.1,2.13-1.42,2.54-1.72,2.3-1.32,1.16-1.14,1.48-.58Z"/>
  <path d="M316.85,217.03l-.8-1.5c-.22-.42-.46-.78-.66-1s-1.15-.11-1.34.13l-1.79,2.21-1.6,2.49-.78,1.13c-.49.71-1.02,1.25-1.9,1.98-.78-.59-.55-1.77.18-2.47l.22-1.22.79-1.65.71-1.61.69-1.46.71-1.29.8-2.16.48-1.06c.12-.26-.26-.86-.43-1.14l-1.01-1.63-.9-1.57-.75-1.41-.73-1.25c-.3-.52-.47-.82-.57-1.61l-1.34-1.36c-.15-.64-.35-1.07-.63-1.49l-.71-1.45-.72-1.44-.72-1.44-.72-1.44-.68-1.34-1.55-2.98-.7-1.41-.76-1.69c-.35-.79-.89-1.48-1.43-2.21l-.79-1.56-2.53-5.1-.79-1.5-.74-1.44-.68-1.25-.77-1.62-.71-1.46-.74-1.46-.59-1.29-1.28-1.88-.6-1.29-.75-1.46-.75-1.44-.65-1.29c-.66-1.3-1.37-2.34-2.74-3.11-1.72-.97-3.84.65-5.03,2.8l-1.51,2.72-.69,1.28c-.83,1.54-.39,1.83-1.09,2.56l-.69,1.69-.74,1.46-.73,1.44c-.18.6-.42,1.19-.7,1.65l-.74,1.5-.79,1.86-.67,1.49-.73,1.64-.66,1.48-.82,1.88-.84,1.82-1.49,3.2-.65,1.86-.74,1.32-.73,1.73-.74,1.59-.68,1.74-.73,1.72-.81,1.64c-.02.75-.25,1.4-.75,1.82-.12.62-.3,1.05-.77,1.43l-.12,1.64c-1.34.67-.02,2.05-1.29,2.57l-.17,1.74c-1.25.69-.07,1.69-1.19,2.72l-.71,2.18c-.27.81-.34,1.65-.84,2.37l-.11,1.78-1.57,3.13c-.4.79-1.37,1.67-1.99,2.46-.81,1.04-2.08,1.17-3.36,1.21l-1.11.56c-.31.16-1.02-.34-1.37-.44-3.16-.99-1.8-1.24-2.77-2.46l-.84-1.06-.66-1.48-.77-1.41c-.57-1.04-1.23-2.2-1.56-3.26-.21-.66-.39-1.23-.7-1.77l-.18-7.16-.46-1.72-.17-5.2c-.01-.42-.49-1.14-.56-1.52l-.48-2.71-.73-2.4c-.11-.37-.51-1.19-.34-1.5s.88-.75,1.2-.61l2.68,1.63,1.29.96c.68.51,1.42.68,2.27.95,1.04.33,2.37,1.24,3.42.15l2.2-2.29c.98-1.01,1.88-1.95,2.67-3.1.67-.97,1.38-1.79,2.23-2.6l.33-.83c1.18-1.1,2.12-2.2,2.94-3.6l1.33-1.45c.02-1.29,1.47-2.1,1.96-2.98l.78-1.42,2.82-4.3,1.53-2.26.64-1.01,1.38-2.01,1.4-2.14,3.49-5.21.8-1.16,1.23-1.78c0-1.36,1.65-1.3,1.58-2.85l2.38-2.37,1.28-.67,6.9-.06c.31.44.57.57,1.18.65l1.29,1.07,1.86,1.22,3.26,3.21c.15.3.5.96.71,1.21l2.3,2.76,1.96,2.64,1.27,1.61,2.1,2.89c.54.74.94,1.23,1.35,2.12l1.45,1.4c.34.33.6.96.73,1.39l2.41,3.11,1.47,1.87,2.44,3.28.78,1.14,1.29,1.55c.45.54.6,1.11,1.14,1.56.46.39.63.63.64,1.37l2.04,1.98.24.97,1.53,2.14,1.68,2.06c.11.14.51.42.67.49s.51-.39.6-.55l.69-1.32.74-1.41.73-1.44.73-1.5c.28-.57.37-1.13.71-1.88l.78-1.73.71-1.49.75-2.17.63-2.11c.17-.58,1.71-.65,2.41-.45.58.17,1.22,1.04,1.57,1.78l-.58,1.89-.81,1.86-2.79,5.7-1.33,2.71-1.62,3.27c-.46.92-.85,1.64-.59,2.71l1.05-.27c.24-.06.29-.75.46-.96l1.9-2.29,1.09-1.36c.91-1.14,2.02-2.43,3.27-3.12l1.4-.77,1.08.78v8.39c1.42.58.04,1.81,1.32,2.66.02,1.06.95,2.02,1.99,1.98.27.27.63.61.89.72s.87-.36.97-.65l1.11-.3,1.65-1.53,4.11-4.3,1.35-1.71,1.98-2.19,2.7-2.89.85-1.42,2.88-3.07.81-1.34,1.3-1.26c.24.73.03,1.4-.36,2.07l-.77,1.32-.86,1.41-1.21,1.94-3.02,4.1-1.04,1.41-2.54,2.81-1.22,1.58c-.65.84-1.24,1.39-2,2.11l-2.46,2.32-2.4,1.68-4.11-.02-2.95-1.51c-.89-.46-1.87-1.75-2.58-2.49,0-.79-.31-1.54-.67-2.03l-.19-5.2c-.97.75-1.52,1.27-2.09,2.01l-1.17,1.52-1.04,1.36c-.09.42-.08,1.48-.04,1.84.92.68,1.21,1.24,1.76,1.99l1.21,1.67,1,1.35,2.17,2.91,1.62,2.17,1.37,1.98,2.42,3.12c.14.43.4,1.06.74,1.39l1.47,1.39c.18.69.33,1.09.63,1.53l1.46,2.19.76,1.62.71,1.42.79,2.17.7,2.36c.75,2.51.38,5.28-.05,7.84l-.43,1.66c-.21.81-.36,1.37-.51,2.14l-.49,2.64-.71,2.24-.73,2.34c-.63.69-1.11,1.41-1.5,2.45-.66.23-2.6.44-3.2-.14l-2.3-2.21c-.14-.14.02-.96-.16-1.03l-.76-.32-2.82-4.39-2.09-3.37-1.15-2-1.43-2.26-.7-1.39-1.4-2.21-.72-1.41-1.26-1.75-.59-1.32-.75-1.43-.72-1.21c-.26-1.13-1.08-1.58-1.85-3.14l-.72-1.46-.7-1.43Z"/>
  <path d="M66.68,246.48c-.58.24-1.07.51-1.59.87l-1.5,1.05c-2.11,1.48-2.51-.71-4.46-1.19l-1.2-.71-1.08-.81c-.27-.21-.96-.45-1.32-.56l-1.81-1.66,1.22-1.26c.29-.3.97-.59,1.37-.73,1.21-.98,2.49-1.64,3.76-2.47l2.14-1.41,2.36-1.51,2.08-1.36c.4-.26.7-.4,1.4-.54l1.37-1.36c.59-.06,1.17-.25,1.45-.72.38-.64,1.09-.66,1.5-.94l2.32-1.57,2.3-1.45,4.9-3.12,2.26-1.48,2.16-1.46,1.29-.9.96-.26c.96-1.23,1.7-1.21,2.75-1.93l3.18-2.18c.32-.22,1.07-.34,1.36-.78.4-.6.94-.73,1.56-.97l1.14-.72,1.58-1.08,2.25-1.47,2.37-1.48,1.32-.89,1.62-1,5.26-3.39,1.12-.71c1.6-.04,1.42-1.71,3.06-1.64l1.24-1.34c.64,0,1.16-.21,1.47-.72.36-.58,1.09-.66,1.49-.92l2.32-1.55,2.32-1.46,5.08-3.3,1.95-1.23,2.46-1.6,1.26-.8,1.27-.71,3.36-2.22,2.18-1.57c1.14.07.88-.93,2.83-1.71l1.37-.55,1.4-1.29,2.29-1.35,2.32-1.51,1.18-.77.8-.4,2.31-1.56,2.21-1.4,2.17-1.44,2.18-1.45c.43-.29.86-.45,1.51-.62l1.24-1.26c.73-.16,1.07-.41,1.66-.8l1.45-.99,1.66-1.11c.46-.2.8-.37,1.12-.59l4.42-2.9,2.25-1.46,2.34-1.52,2.26-1.35,1.91-1.26,2.35-1.53c.27-.18.72-.37,1.13-.52l1.93-1.35,2.12-1.47c.5-.08.99-.29,1.26-.7.38-.59,1.07-.68,1.49-.95l2.33-1.54,1.16-.69,2.16-1.29,1.77-1.24,1.92-1.26,2.25-1.35,2.35-1.53,2.14-1.39,2.24-1.46,1.35-.74,2.44-1.6,1.5-1.06c.91,0,1.3-.83,1.93-1.24l2.31-1.5,1.39-.74,2.2-1.53,1.01-.6,2.01-1.38,2.02-1.32,2.36-1.54,1.29-.66,1.59-1.11,2.2-1.47c.33-.22,1.13-.36,1.37-.79.37-.68,1.06-.69,1.48-.97l2.36-1.54,1.15-.7,6.53-4.23,3.46-2.11,1.76-1.33,1.52-.79,4.79-3.28c.36-.24.86-.44,1.29-.69l1.18-.69,1.77-1.24c1.39.04,1.3-1.72,2.88-1.58l1.24-1.27c.68-.17,1.06-.33,1.51-.63l2.21-1.5c.35-.24,1.08-.59,1.37-.93.91-1.05,2.02-.88,3.13-.23l1.19.7c.58.34,1.05.63,1.64,1.03l1.29.88,2.71,1.46.07,1.98c-1.92-.31-1.72,1.58-3.15,1.53l-2.15,1.48-3.27,2.24-1.42.79-1.24.79-2.39,1.53-1.5,1.03c-.73.5-1.38.82-2.07,1.35l-1.3.82-2.36,1.5-1.23.65-3.39,2.32c-.3.2-1.03.39-1.25.7-.46.64-.91.77-1.56,1.03-.39.21-.72.4-1.36.56l-1.41,1.27-2.25,1.38-1.35.81-3.61,2.39-3.59,2.27-2.58,1.68-2.18,1.43c-.78.51-1.25,1.3-2.2,1.41-.28.21-.74.43-1.14.58l-1.97,1.32-2.32,1.56-1.97,1.35-1.11.53-3.06,2.31-1.42.69-2.19,1.37-2.34,1.54-1.24.88-2.92,1.7-2.56,1.51-1.15,1.17c-1.35-.04-1.08.93-3.02,1.75l-1.49.63-1.29,1.18-2.46,1.43-1.19.73-1.33.84-3.12,1.99c-.73.47-1.4.82-2.11,1.48l-.95.45c-.65.63-1.32,1.12-2.15,1.53l-1.4.71-2.24,1.5-1.93,1.29-1.94,1.31c-.41.14-.89.35-1.15.52l-1.21.83-3.17,2.15c-.78.38-1.56.9-2.23,1.51-1.22.07-1.09.83-2.85,1.78l-1.52.83-2.26,1.51-3.84,2.48-1.17.66-2.3,1.55c-.32.22-1.14.4-1.39.77-.44.67-.86.88-1.6.89l-1.24,1.3c-.72.15-1.04.32-1.53.64l-2.16,1.41-2.5,1.63-2.03,1.35-1.94,1.26-2.55,1.45-2.04,1.39-2.25,1.48-5.48,3.7-1.19.6-1.14.68-1.82,1.24-2.02,1.33c-.7.46-1.37.84-2.02,1.46l-1.04.34c-1.07,1.05-2.38,1.64-3.6,2.42l-2.05,1.31-2.46,1.61-2.08,1.36c-.41.27-.7.42-1.4.55l-1.36,1.35c-1.63-.04-1.53,1.66-2.87,1.58l-1.95,1.33-2.14,1.46-.93.53-2.23,1.37-2.46,1.61-2.15,1.41-2.19,1.26-2.16,1.46-2.02,1.33-2.46,1.6c-.33.21-.69.4-1.14.58l-1.95,1.3-1.6,1.13c-.26.18-.75.35-1.22.48l-1.28,1.22-2.25,1.36-1.49.92-1.53.99-1.15.71-3.09,1.97-1.58,1.02-2.21,1.47-1.38.72-2.25,1.37-1.28,1.25c-.65.14-1.06.33-1.48.63Z"/>
  <path d="M430.03,188.45l-1.45-.92-2.35-1.51c-.29-.19-1-.38-1.23-.69-.45-.64-.89-.79-1.53-.97l-1.8-1.25-2.33-1.51-3.18-1.94-2.25-1.47-2.33-1.52-2.33-1.52-1.16-.69-2.19-1.44-2.28-1.52c-.75-.39-1.49-.95-2.14-1.53-1.61.01-1.43-1.73-3.03-1.6l-1.24-1.29c-.71-.15-1.04-.33-1.52-.65l-2.18-1.42-2.48-1.61-4.68-3.07-1.73-.9-2.17-1.49-2.2-1.42c-.43-.28-.88-.45-1.49-.66l-1.25-1.24c-.65-.17-1.03-.36-1.49-.68l-2.75-1.92c-.26-.18-.75-.35-1.22-.49l-1.26-1.23-1.47-.67-2.2-1.4-2.35-1.53-2.31-1.5-1.93-1.25-1.97-1.19-2.62-1.7-2.08-1.35c-.47-.31-.81-.48-1.52-.63l-1.24-1.29c-.73-.03-1.16-.23-1.6-.89-.2-.29-.96-.5-1.23-.69l-3.4-2.31-1.23-.74-1.05-.61-4.02-2.63c-.78-.51-1.5-.82-2.16-1.47l-.81-.38c-.67-.65-1.34-1.07-2.18-1.52l-1.36-.74-2.08-1.32-1.66-1.15-1.44-.99c-.59-.4-.93-.65-1.67-.8l-1.23-1.23c-.68-.18-1.04-.36-1.51-.66l-2.19-1.42-2.37-1.52-1.11-.85-1.71-1.11-3.12-1.99-1.33-.83-1.2-.74-2.68-1.59c-.55-.71-1.21-1.2-2.06-1.25-.55-.84-1.27-1.39-2.08-1.51l-2.21-1.56c-.24-.17-.73-.34-1.17-.48l-1.63-1.18-2.26-1.51c-.71-.47-1.4-.77-2.03-1.4l-1.01-.42-1.3-.86-2.18-1.45-2.24-1.47-3.99-2.57-1.03-.56-2.31-1.54-2.19-1.47c-.32-.21-1.12-.38-1.37-.75-.44-.66-.86-.87-1.61-.9l-1.25-1.3c-.66-.18-1.08-.34-1.5-.62l-2.2-1.45-1.43-.93-3.23-2.08-1.33-.86-1.45-.97-1.22-.74-2.47-1.53-2.04-1.36-2.36-1.57c-.27-.18-.72-.36-1.15-.5l-2.11-1.45-1.93-1.32-2.09-1.33-1.35-.73c-.83-.45-1.51-.85-2.17-1.51l-.81-.38c-.65-.59-1.27-.94-2.01-1.4l-3.37-2.1-2.36-1.52-2.72-1.58-1.16-1.17c-1.63.08-1.45-1.7-3.07-1.58l-1.24-1.27c-.69-.17-1.05-.35-1.51-.66l-2.07-1.35-2.58-1.68-4-2.63c-1.04-.69-2.69-1.44-3.5-2.29-.21-.22-.86-.4-1.11-.49l-2-1.4-2.51-1.54c-.78-.91.68-1.78,1.43-2.11l1.77-1.24c1.37.06,1.29-1.68,2.9-1.61l.97-.91c.25-.24.96-.57,1.32-.54s.81.43,1.21.68l3.28,2.01,2.89,1.98c.36.24.63.38,1.23.54l1.43,1.27,2.24,1.39,1.38.73,2.2,1.49,1.44.92,2.99,1.88,2.26,1.59,1.44.77c.51.28,1.05.43,1.4.87.44.56.89.75,1.59.86l1.25,1.28c.6.15,1,.32,1.37.57l1.46,1.03,1.85,1.24,1.14.67c.54.31.95.52,1.43.84l5.24,3.49,2.24,1.53,1.43.72c.77.39,1.38.92,2.13,1.5l1.43.85,2.62,1.56,2.15,1.39,2.15,1.45,2.04,1.36c.4.27,1.12.34,1.49.93.28.45.71.65,1.3.73l1.69,1.23,1.24.72,2.38,1.49,2.19,1.42,2.03,1.3c1.25.8,2.61,1.48,3.7,2.53l.97.31c.5.53,1.3,1.03,2,1.38l.94.69,1.22.82c.36.24.78.42,1.29.6l1.93,1.31,1.88,1.3,2.43,1.55,2.04,1.36c.42.28,1.1.46,1.49.94.37.46.78.67,1.28.94l1.55.81,2.18,1.43,4.2,2.79,2.61,1.63,1.12.68,1.7,1.26c.96-.21,1.33.96,1.88,1.21.73.33,1.22.36,1.73,1.06.27.38,1.01.61,1.35.8l3.67,2.33,4.05,2.69,3.1,1.94,1.67,1.16,2.21,1.44,1.48.68,1.25,1.24c.72.16,1.08.4,1.66.8l1.44.99,1.65,1.13c.51.19.82.35,1.17.58l2.32,1.52,2.17,1.41,2.15,1.46,2.45,1.39,1.9,1.28,2.33,1.51,2.32,1.51,2.11,1.29,1.3,1.2,1.49.62c1.9.79,1.69,1.75,2.81,1.73l1.95,1.35.9.52,2.65,1.65,4.32,2.87c.73.49,1.38.79,2.02,1.39l.81.38c.65.64,1.35,1.08,2.15,1.51l1.42.75,1.29.8,2.5,1.79c.29.11.94.34,1.19.51l2.29,1.53,2.43,1.62,2.05,1.37c.33.22,1.1.37,1.37.78.42.66.99.71,1.54,1.02l1.49.84,1.3.99,1.38.79,2.65,1.75,1.29.85,2.2,1.47c.38.26.71.39,1.4.53l1.37,1.36c1.59-.09,1.5,1.64,2.86,1.57l1.94,1.34,2.37,1.51,5.31,3.38,2.26,1.48,2.16,1.47,1.32.83,1.01.43c.64.65,1.42,1.01,2.12,1.46l3.41,2.2-.31,1.75-1.53.71c-.5.23-.96.49-1.4.79l-2.6,1.81-1.18.71-1.08.53c-.26.13-.9-.28-1.15-.43Z"/>
  <path d="M92.06,183.96l1.48.71,2.36,1.62c1.24.85,2.59.75,3.65-.52.24-.29,1.17-.45,1.45-.69l1.86-1.61-1.95-1.85c-.69-.1-.93-.26-1.36-.62-.71-.6-1.55-1.02-2.32-1.51l-2.07-1.34-1.28-.84-4.45-2.81-2.43-1.56c-.45-.29-1.08-.39-1.49-.97-.28-.39-.76-.59-1.25-.69l-1.95-1.35-2.33-1.56-1.95-1.3c-.52-.2-.86-.4-1.26-.66l-2.34-1.52-2.03-1.34-2.17-1.45-2.17-1.49-1.71-.89-4.53-2.94-1.03-.56-2.21-1.45-2.29-1.57c-.32-.22-1.13-.35-1.38-.74-.42-.66-.86-.87-1.6-.9l-1.25-1.3c-.67-.19-1.04-.36-1.5-.64l-2.41-1.47-1.26-.76c-.3-.18-.66-.76-.58-1.14.07-.31.55-.75.9-.95l1.57-.89c.48-.27,1.63-.26,2.16-.06.82.66,1.59,1.16,2.55,1.61l1.32,1,1.31.82,2.29,1.43,1.33.72,3.3,2.27c.32.22,1.06.35,1.35.78.43.62.9.76,1.58.96l1.12.73,1.69,1.14,2.15,1.4,2.36,1.53,1.72,1,3.23,2.04,1.57,1.02,2.2,1.48c.38.26.72.41,1.39.55l1.36,1.31c1.52-.09,1.38,1.54,3.01,1.7l1.65,1.13,2.16,1.45,1.24.67,2.36,1.51,2.16,1.41,2.04,1.37,2.28,1.53,2.12,1.12,1.46,1.25c.57.21.89.35,1.33.72.37.17,1.65.34,2.09.06l1.98-1.27c.51-.33.96-.51,1.37-.9.45-.42.92-.68,1.59-.88.15-.1.29-1.09.13-1.39-.18-.34-.69-.63-1.15-.93l-5.25-3.35-2.05-1.32-1.33-.93c-.58-.41-.94-.65-1.67-.79l-1.24-1.24c-.67-.17-1.05-.36-1.51-.66l-2.08-1.36-2.46-1.6-1.24-.87-3.38-2.15-1.72-.99-2.46-1.61-2.08-1.36c-.45-.29-.85-.48-1.5-.63l-1.25-1.27c-.68-.16-1.01-.33-1.51-.68l-2.72-1.89c-.25-.18-.9-.41-1.2-.52-.55-.49-1.15-1.03-1.72-1.37l-3.18-1.91-2.25-1.47-2.34-1.53-1.87-1.08-2.46-1.59-2.32-1.51-2.18-1.42-.06-.87c-.01-.21.52-.27.79-.3l1.89-1.49,2.1.05,1.02.74,2.17,1.45,1.93,1.34c.54.1.94.27,1.27.7.41.54,1,.66,1.55.99l1.39.84,2.3,1.56,2.03,1.33,2.33,1.52,2.27,1.36,1.19.71,2.44,1.44,1.27,1.24c.66.1,1.09.27,1.47.75.45.57.91.71,1.55,1l1.43.65,1.71,1.34,4.02,2.53,3.65,2.26,2.34,1.51,1.15.77,2.4,1.5,1.45.81,3.16,2.16,1.32.91c.58.4.94.64,1.66.78l1.25,1.29c.67.15,1.06.31,1.51.61l2.11,1.41c1.21.8,2.53.13,3.57-.52l2.66-1.66.89-.56,1.98-1.32,1.47-1.03c.36-.25.76-.41,1.36-.56l1.24-1.3c.75-.05,1.15-.24,1.61-.86.31-.42.93-.55,1.42-.84l1.42-.84,2.25-1.53,3-1.89,1.46-.91,1.2-.74,2.49-1.57,2.12-1.3,1.29-1.2,1.5-.63c.64-.27,1.06-.42,1.54-1.04.24-.3.94-.53,1.21-.71l3.31-2.24,1.35-.75,2.38-1.48,1.27-.85,2.09-1.33,1.47-1.06,1.52-.85c.5-.28.93-.48,1.36-.88.46-.44,1.02-.6,1.52-.93l2.27-1.5,1.6-1.18c1.12.11.88-.89,2.84-1.71l1.5-.63,1.29-1.21,2.11-1.3,2.48-1.55,1.21-.75,1.31-.85,1.62-1.06,2.37-1.49,2.17-1.44,2.18-1.44c.43-.28.84-.45,1.51-.63l1.25-1.3c1.55.14,1.38-1.47,2.99-1.65l1.83-1.25,2.13-1.45c.35-.15.86-.37,1.12-.54l2.62-1.77,2.66-1.68,1.4-.72,2.3-1.58,2.12-1.41,2.11-1.34,2.53-1.51,1.17-1.11,1.52-.64c1.97-.83,1.62-1.78,2.99-1.72l1.27-1.26,2.31-1.35,2.14-1.47.85-.41,1.15-.75,2.32-1.51,2.17-1.43,2.35-1.53,2.18-1.43c.41-.27.7-.42,1.39-.56l1.4-1.35c.27-.08.89-.24,1.1-.39l1.51-1.07,2.34-1.56,1.96-1.33c.43-.17.92-.41,1.23-.72.52-.54.96-.67,1.55-1l1.46-.82c.69-.38,1.55-1.05,2.31-.18.51.58,1.61,1.11,2.26,1.43.56,1.01-.8,1.77-1.51,2.07l-1.75,1.28c-1.34-.08-1.25,1.52-2.85,1.63l-1.87,1.38-2.26,1.46-2.2,1.38-5.5,3.54-2.06,1.35-1.27.89-1.09.31c-.54.73-1.15,1.22-2.03,1.39l-1.26,1.26c-.58.16-.99.33-1.36.58l-2.88,2.01c-.26.18-.75.35-1.23.5l-1.26,1.24-1.47.67-2.2,1.4-2.34,1.53-2.17,1.43-2.48,1.57-5.35,3.41-2.26,1.62-1.44.73c-.54.28-1.15.47-1.53.97-.37.46-.69.59-1.3.74l-1.62,1.17-2.28,1.51-1.21.71-1.54.91-1.43.99-2.34,1.53-2.06,1.29-1.51,1.07-1.35.85-1,.4c-.59.59-1.16.93-1.91,1.32l-1.88,1.32-2.06,1.37c-.32.21-1.05.38-1.35.77-.46.6-.9.78-1.54,1.04l-1.5.62c-.59.6-1.29,1.34-2.12,1.61l-6.39,4.18-5.44,3.49-1.3.74c-.42.24-1.15.34-1.39.82-.35.69-1.26.69-1.61,1-.75.65-1.37,1.27-2.18,1.44l-1.71,1.2-2.37,1.51-5.12,3.27-2.47,1.42-2.17,1.43-2.23,1.47-5.23,3.49c-.5.33-.86.51-1.44.84l-1.18.68-1.72,1.26c-.97-.12-1.3.88-1.91,1.24l-2.57,1.53-1.21.72-2,1.36-.83.41-2.38,1.73-2.8,2.03-1.42.79c-.47.26-1.09.48-1.66.65-.59.51-1.28,1.02-2.02,1.37l-2.27,1.54-2.71,2.11-1.97,1.27-1.29.62-1.41.77-2.35,1.48-2.65,2-2.72,1.79-1.84,1.05-1.91,1.33-2.7,1.55-1.25.63-1.23.78-1.71,1.26c-.99-.12-1.31.93-1.92,1.25s-1.25.32-1.68,1.04c-.27.44-1.04.6-1.37.82l-2.33,1.53-1.04.56-3.94,2.57-2.02,1.35-2.39,1.25-1.39,1.3c-.58.16-.99.32-1.38.59l-3.29,2.27-1.14.73c-1.62.17-1.55,1.73-2.85,1.65l-1.85,1.32c-1.38-.08-1.32,1.74-2.9,1.57l-1.25,1.33c-1.3-.09-1.15.84-2.86,1.74l-1.67.88-2.08,1.36-2.03,1.35-2.6,1.69-2.07,1.35c-.42.27-.69.42-1.4.55l-1.37,1.36c-1.58-.02-1.58,1.58-2.69,1.6-.73,0-1.18-.15-1.58-.62-.73-.22-1.18-.44-1.79-.98-.37-.29-.48-1.63-.03-1.86.9-.46,1.53-.82,2.25-1.47.79-.24,1.52-.73,2.11-1.49l1.06-.33,1.28-.89,2.19-1.47,2.23-1.47,3.58-2.27,3.79-2.42c.32-.21,1.09-.37,1.35-.78.42-.65.86-.86,1.59-.88l1.24-1.3c.74-.14,1.04-.33,1.54-.65l2.07-1.35,2.59-1.68,2.03-1.34,2.07-1.35,1.68-.89c1.57-.83,1.5-1.59,2.77-1.87l2.17-1.41,2.17-1.43,2.33-1.61c.24-.17.74-.35,1.15-.48l1.94-1.32,1.92-1.29,2.21-1.57.85-.15,1.42-1.46c.37-.06,1.04-.21,1.06-.51.02-.32-.28-.93-.53-1.1l-1.32-.86-2.05-1.35-2.49-1.6-1.12-.55-1.95-1.34-2.12-1.45c-1.35.06-1.27-1.68-2.86-1.56l-1.25-1.31c-.64-.18-1.09-.35-1.51-.62l-2.08-1.37-2.16-1.42-2.32-1.51-2.46-1.63-1.83-1.04-2.47-1.65-2.09-1.31-2.13-1.42-2.36-1.58c-.26-.17-.73-.36-1.14-.5l-2.13-1.44-1.77-1.27c-.77-.38-1.42-.74-2.04-1.38l-1-.39-1.02-.72-2.48-1.63-2.18-1.38-3.22-2.02-2.39-1.5c0-1.31,1-2.06,2.13-2.26l1.11-.75,1.78-1.21c.81-.14,1.21-.68,1.81-1.24.63-.59,2.62-.63,3.26-.08.76.66,1.31,1.26,2.16,1.42l1.71,1.21,2.38,1.5,5.31,3.39,2.23,1.49,2.45,1.39,1.77,1.21,2.45,1.59,2.41,1.44,1.15,1.13c.59.16,1.01.3,1.37.55l2.34,1.58c.33.23,1.07.39,1.37.76.48.6.96.82,1.54,1.14l2.01,1.21,1.74,1.24,1.28.61,2.36,1.54,2.03,1.32,2.13,1.51.95.55,1.37.72,2.18,1.41,2.29,1.51,2.03,1.42Z"/>
  <path d="M348.3,65.96l-1.6,1.05-2.33,1.51-2.33,1.51-2.08,1.32-1.07.61-1.74,1.22c-.54.38-1.12.39-1.54.97-.32.43-.72.6-1.29.72l-1.88,1.31-.95.58-2.47,1.54-2.33,1.5-1.23.79c-.18.12-.48.53-.42.73s.41.61.61.73l2.06,1.23,3.64,2.35,1.2.79,1.77.95,1.26,1.26c1.38-.07,1.02.94,3.01,1.73l1.37.55,1.3,1.18,2.4,1.46,2.3,1.46c.77.49,1.22.94,2.08,1.43l2.28,1.28,1.89,1.24,1.69,1.16,1.29.83,3.39,2.2,1.15.65,2.37,1.56c.33.22,1.05.39,1.35.79.46.59.91.77,1.54,1.02l1.38.56,1.4,1.26,2.22,1.39,2.07,1.38,2.32,1.49,2.43,1.55c1.23.79,2.42,1.39,3.44,2.37l.87.16c.6.68,1.28,1.14,2.16,1.46l1.26,1.26c.72.13,1.08.4,1.66.8l1.49,1.02c.26.17.72.35,1.18.52l1.62,1.16,2.28,1.52,2.2,1.4,1.23.7.96.51,2.12,1.51,2.21,1.37,2.06,1.4c.4.27,1.07.6,1.47.8l3.03,2.24,1.63,1.12,1.18.55,1.5,1.01c.58.39.94.66,1.64.8l1.28,1.22,2.45,1.41,1.2.71,2.66,1.71,2.95,1.89,1.84,1.25,2.2,1.48,1.4.69,2.15,1.44,1.71,1.16,1.16.68c.51.3,1.14.45,1.53.96.34.45.71.59,1.3.73l1.59,1.17,2.33,1.51c.69.45,1.35.81,1.99,1.42l1.05.36,1.18.81,1.64,1.13,2.25,1.36,2.16,1.48,1.24.78,1.41.78,3.18,2.16c.38.26,1.12.42,1.47.93.4.59.73.72,1.65.73.09.07.17,1.02-.07,1.25l-1.56,1.53c-.69.07-1.33.28-1.6.72l-1.42-.78-1.25-.66-1.96-1.32-1.61-1.12c-.26-.18-.74-.34-1.22-.48l-1.26-1.27c-.92-.14-1.53-.81-2.21-1.41-.43-.15-1.1-.41-1.43-.63l-2.21-1.47-2.15-1.43-2.48-1.54-2.01-1.21-2.34-1.52-2.07-1.34c-.45-.29-.83-.46-1.51-.63l-1.25-1.3c-1.61.1-1.52-1.63-2.89-1.56l-1.62-1.18-2.45-1.6-1.08-.56-2.49-1.58-1.9-1.27-2.28-1.53-2.2-1.25-2.15-1.46-2.18-1.41-1.78-1.23-2.04-1.37c-.32-.22-1.06-.36-1.36-.77-.44-.6-.91-.78-1.53-1.03l-1.51-.63-1.27-1.21-2.23-1.36-2.35-1.54-2.3-1.46-3.53-2.28-1.19-.76-1.79-1.13-2.12-1.3-1.29-1.2-1.51-.66c-.45-.19-1.11-.43-1.37-.82-.44-.65-1.08-.67-1.5-.97l-3.3-2.27-1.25-.65-2.46-1.58-1.18-.74c-.61-.48-1.23-.84-1.88-1.26l-1.7-1.11-2.5-1.61-1.14-.74-1.29-.69-3.39-2.32c-.28-.19-1.05-.38-1.24-.68-.43-.67-.86-.88-1.59-.9l-1.26-1.28c-1.01-.29-2.39-.92-2.91-1.46-.47-.49-.9-.7-1.41-1.03l-4.38-2.78-3.57-2.28-2.58-1.69-2.05-1.35-2.2-1.42c-.44-.29-.88-.45-1.49-.67l-1.25-1.24c-.72-.15-1.07-.4-1.65-.8l-1.47-.99-1.64-1.12-1.12-.61-2.36-1.49-2.17-1.44-1.54-1.1-1.95-1.18-1.56-1.08-2.33-1.53-2.33-1.5-2.07-1.32-1.19-.75-1.77-1.21c-.51-.13-.99-.31-1.26-.7-.42-.59-1.05-.69-1.5-.98l-2.35-1.54-1.15-.62-5.82-3.84-2.27-1.33-2.36-1.54-2.02-1.32-2.45-1.6c-.34-.22-.67-.39-1.16-.58l-1.66-1.12-1.44-.98c-.57-.39-.96-.63-1.65-.81l-1.28-1.22-2.25-1.4-1.38-.69-2.2-1.47-1.85-1.25-2.79-1.75-3.61-2.37-2.33-1.33-1.83-1.41c-1.39-.23-1.12-1.05-2.97-1.84l-1.5-.63-1.28-1.2-2.42-1.44-2.17-1.42-2.31-1.51-1.99-1.2-2.22-1.45-2.25-1.47-3.96-2.58-.93-.5c-1.02-.55-1.98-1.19-2.72-2.19l2.95-2.03c.22-.15.69-.65.92-.54s.56.43.78.66c1.7.17,1.49,1.5,3.11,1.81.43.22.71.38,1.38.57l1.37,1.28c.62.18.92.35,1.36.65l3.65,2.48,4,2.56,1.94,1.23,2.34,1.53,2.18,1.43c.42.27.9.48,1.48.63.61.68,1.4,1.31,2.28,1.49.59.8,1.26,1.35,2.09,1.47l1.7,1.23,2.35,1.5,3.18,1.94,2.25,1.55,1.26.82,3.41,2.13,1.74,1.23,1.02.61,1.22.74,2.55,1.51,1.17,1.11,1.52.64c1.97.83,1.66,1.84,3.01,1.69l1.25,1.42,2.55-.06.97-.72,2-1.34,2.11-1.42c.45-.18.82-.37,1.15-.58l2.35-1.53c.61-.4,1.42-.85,1.95-1.39l.97-.28c1.05-1.09,2.45-1.7,3.67-2.5l4.11-2.69,2.58-1.68c.72-.47,1.29-.94,2.13-1.28l1.26-1.25c.67-.08,1.1-.25,1.48-.74.44-.57.91-.71,1.55-1l1.43-.65,1.71-1.34,4.15-2.63,1.99-1.36,2.55-1.46,2.12-1.43,5.32-3.38,2.36-1.52,1.94-1.33c1.3.07,1.22-1.54,2.87-1.62.24-.22.61-.62.88-.72.79-.29,1.2,1.74,2.7,1.62l1.11,1.06-1.86,1.64c-.36.17-1.22.37-1.41.73-.4.74-1.06.73-1.52,1.04l-2.32,1.51-1.15.71-2.5,1.59-1.4.89c-1.39.88-2.67,1.56-3.91,2.68l-1.23.71-1.41.73c-.72.53-1.38,1-2.23,1.39l-1.28,1.23c-1.4.06-1.85,1.54-3.28,1.69l-1.12.76-2.54,1.72-1.3.83-2.17,1.43-2.14,1.47-2.07,1.13-1.9,1.42-1.34.84-1.18.69-2.52,1.61-1.24,1.04c-1.64.05-1.46,1.72-3.06,1.63l-1.24,1.25-1.43.55c-.78.3-1.29.81-2.04,1.36-1.03.75-2.08,1.21-3.13,2.28l2.71,2.03,2.35,1.45c1.25.77,2.4.73,3.73-.19l1.51-1.06,3.72-2.52,1.2-.62,2.31-1.53c.35-.23,1.11-.41,1.38-.82.43-.65.87-.86,1.6-.88l1.24-1.31c.66-.06,1.15-.23,1.48-.73.38-.58,1.07-.67,1.49-.96l2.3-1.54,2.38-1.45,1.01-.66,2.3-1.56,2.71-1.58c.91-.53,1.67-.89,2.31-1.76l.97-.23,2.01-1.44,2.15-1.4,2.46-1.69c.23-.16.75-.36,1.14-.49l2.12-1.45,1.82-1.25,2.2-1.39c.45-.29,1.11-.39,1.48-.98.29-.46,1.04-.57,1.4-.8l1.44-.93,2.17-1.41,2.18-1.42,2.23-1.45,1.71,1.07c.55.34.68.46,1.56.79l.04,1.74c-1.19.37-1.82.95-2.77,1.57l-3.67,2.37-2.36,1.49-1.93,1.36c-1.37-.09-1.27,1.64-2.88,1.57l-1.36,1.36c-.63.13-.96.25-1.3.47l-2.18,1.43-2.45,1.61-2.31,1.49-1.89,1.08-2.34,1.54-2.16,1.42-1.89,1.23-1.93,1.35-1.17.7-1.3.66-2.89,2.01c-.27.19-.74.35-1.23.49l-1.25,1.25c-1.56.16-1.62,1.6-3.05,1.7l-1.23.83-2.43,1.61-2.14,1.4-4.09,2.69c-.13-.02-.57-.08-.58.02l-.12.72c-.04.24.04.9.24,1.02l.87.5c.43.43.77.61,1.51.7l1.24,1.37,2.32-.04.91-.85c.37-.34.9-.53,1.49-.66l1.28-1.24c.86-.4,1.51-.87,2.24-1.4l1.4-.69c.84-.41,1.49-.9,2.15-1.54l.8-.38,2.3-1.55,2.21-1.41,2.19-1.45c.4-.27.7-.41,1.39-.56l1.37-1.3c.59-.15,1-.33,1.37-.6l.96-.72c.54-.4.98-.56,1.44-1.05.36-.39.71-.55,1.28-.71l1.87-1.29c.55-.22.87-.4,1.26-.65l4.31-2.84,2.24-1.49,2.08-1.18,2.39-1.59,2.14-1.41,4.12-2.64,1.7-1.33,1.46-.67c.51-.23,1.1-.41,1.4-.84.42-.63,1.09-.65,1.54-.98l2.02-1.5,1.6-.81.93-.47c.26-.13.74.43.99.58l2.73,1.63,2.18,1.41,1.88,1.27c.21.14.51.61.54.85.04.28-.31.84-.56.99l-1.4.81c-.91.53-1.53,1.09-2.41,1.45l-1,.68-2.3,1.55-2.63,1.65-1.86,1.27-2.2,1.46-1.41.71-2.14,1.43-1.87,1.25-2.32,1.55-1.96,1.31c-.44.18-.82.37-1.15.58l-2.46,1.59-2.06,1.34-1.37.74-1.33.88Z"/>
  <path d="M53.48,235.42l-2.2,1.46c-.7.46-1.37.85-2.01,1.47l-.93.47c-.68.58-1.49.65-2.16.15l-2.93-2.2,2.93-2.07,2.36-1.45.94-.57,1.91-1.3c1.38.06,1.19-1.63,2.99-1.6.53-.84,1.27-1.42,2.09-1.54l2.14-1.54,2.37-1.44,1.15-.76,2.18-1.44,2.33-1.52,2.2-1.44c.41-.27.69-.41,1.38-.56l1.36-1.32c.65-.07,1.15-.26,1.48-.78.36-.58,1.09-.66,1.49-.92l2.32-1.54,1.64-1.11c.56-.15.93-.31,1.27-.74.44-.56,1.06-.71,1.56-1.02l2.74-1.71,2.23-1.5,2.45-1.38,1.77-1.22,2.33-1.5,2.46-1.58c.71-.46,1.29-.94,2.12-1.29l1.27-1.21,1.52-.63c.51-.21,1.06-.42,1.39-.85.44-.59,1.04-.68,1.51-.98l2.34-1.53,1.16-.65,6.08-4.02,2.18-1.39,1.34-.86c.38-.25,1.18-.34,1.49-.87.35-.6,1.07-.67,1.49-.95l2.06-1.37,2.43-1.62,2.15-1.44,1.2-.59,2.61-1.78,1.3-.83c.79-.45,1.46-.88,2.13-1.5l.97-.23c.92-1.18,2.39-1.68,3.53-2.44l4.11-2.71,2.59-1.68,2.12-1.28,1.27-1.22c.66-.22,1.04-.38,1.51-.63l1.28-.7,1.51-1.05,3.38-2.31,1.1-.57,3.05-1.95,2.05-1.32,2.31-1.54,1.28-.89.93-.29,1.99-1.42,2.47-1.58c.32-.21.7-.39,1.14-.57l1.95-1.32,2.13-1.43c1.34.04,1.27-1.72,2.86-1.58l1.24-1.29c.66-.17,1.08-.33,1.51-.62l2.1-1.39,2.3-1.49,2.46-1.6,1.15-.71,1.52-.97,1.31-.89,2.46-1.41,1.27-1.21,1.51-.63c1.87-.78,1.59-1.61,2.89-1.8l3.58-2.43,4.15-2.57,2.73-1.8,2.03-1.33,2.31-1.52,2.4-1.47,1.08-.62,1.75-1.25c1.38.07,1.28-1.67,2.88-1.57l1.24-1.27c.69-.16,1.06-.35,1.52-.66l2.07-1.36c.72-.47,1.42-.87,2.12-1.52l.95-.44c.65-.68,1.35-1.03,2.11-1.52l4.46-2.83,1.3-.8,2.37-1.47,2.24-1.47,1.92-1.29,1.83-1.24c.39-.17,1.05-.42,1.36-.64l2.23-1.54,2.28-1.49c.69-.45,1.27-.78,1.9-1.36l1.04-.34,1.16-.84,2.42-1.61,2.13-1.4,5.28-3.34c.72-.45,1.39-.83,1.99-1.47l1.6-.05c.34.62.81.73,1.4.83l1.82,1.66c-.44.6-1.21,1.19-1.9,1.27-1.16.98-2.44,1.69-3.71,2.47l-2.08,1.29-1.69,1.11-1.21.72-2.19,1.42-2.31,1.56c-.41.27-1.11.38-1.49.95-.29.44-.74.62-1.27.71l-1.78,1.22-2.16,1.47-1.23.66-2.36,1.51-2.17,1.42-1.89,1.3-2.45,1.4-2.15,1.45-2.16,1.42-1.32.83-2.49,1.76c-.33.14-1,.41-1.3.61l-2.28,1.53-2.2,1.47-2.14,1.41-2.38,1.48-1.21.73-1.32.83-4.82,3.16-1.3.85-2.2,1.45c-.45.3-.84.47-1.51.63l-1.24,1.3c-1.32-.06-1.05.84-3.02,1.72l-1.42.64c-1.06.99-2.22,1.75-3.43,2.49l-2.66,1.63-2.04,1.34-2.16,1.52-1.4.71c-1.75.89-1.78,1.6-2.92,1.95l-2.18,1.39-2.36,1.51-1.07.57-1.98,1.32-2.04,1.36c-.39.26-1.13.34-1.49.92-.29.46-.71.68-1.3.73l-1.71,1.24-1.22.71-2.18,1.44-1.37.83-3.11,1.9-2.06,1.33-2.35,1.53-2.17,1.4-.97.69-1.22.81c-.38.25-.75.42-1.29.61l-1.51,1.03-2.54,1.69-2.06,1.37-1.34.74-1.82,1.16-1.14.73c-.61.49-1.22.87-1.88,1.28l-1.91,1.18-2.32,1.54-1.17.69-1.49.97-1.48.95-2.42,1.41-1.16,1.17c-1.36-.06-1.04.88-3.02,1.74l-1.48.64-1.31,1.17-2.24,1.39-1.49.9c-.62.38-1.06.71-1.64,1.05l-1.21.7-2.18,1.46-2.34,1.52-2.25,1.47-3.18,1.95-2.32,1.51-1.71,1.14-2.32,1.51-2.15,1.48-1.39.69-2.1,1.36-2.44,1.59-2.3,1.54-1.58.9-2.09,1.4-3.6,2.43c-.46.31-.72.48-1.38.63l-1.24,1.24c-1.12.38-2.55.99-2.91,1.45-.49.63-.85.84-1.61.91l-1.26,1.24-1.62.88-1.52.93-1.17.7-2.33,1.53-2.34,1.53-2.26,1.47-5.29,3.37-2.2,1.39-1.47,1.04c-.36.25-.77.43-1.36.58l-1.26,1.26c-.63.17-1.07.35-1.5.63l-2.14,1.41Z"/>
  <path d="M305.05,283.41c-2.11,1.28-1.4-.35-3.96-1.14-.32-.38-.34-1.66.11-1.85.5-.2.92-.4,1.19-.62l1.05-.87c1.59,0,1.5-1.64,2.83-1.6l1.95-1.35.9-.55,2.5-1.54,2.2-1.44,2.02-1.33,2.17-1.43c.78-.51,1.56-.93,2.25-1.61l.82-.37c.64-.63,1.32-1.13,2.14-1.5l1.48-.68,1.26-1.22c.64-.18,1.03-.38,1.5-.7l1.61-1.1,1.64-1.12c.53-.19.82-.34,1.18-.58l2.31-1.53,2.17-1.39,2.35-1.52,2.16-1.44,2.17-1.45.8-.42,1.18-.76,2.53-1.52c.64-.58,1.42-1.08,2.2-1.38.63-.79,1.27-1.25,2.12-1.52l1.16-.55,1.83-1.23,1.15-.66c.52-.3.97-.51,1.41-.82l2.59-1.8,1.12-.65,1.29-.77,2.32-1.52,2.34-1.53,2.25-1.47,3.16-1.94,2.18-1.38,1.87-1.31c.84-.22,1.24-.74,2.05-1.29l2.39-1.64,1.41-.7,2.19-1.44,2.05-1.35,2.45-1.6,3.4-2.16,1.62-1.03,1.3-.89,2.47-1.41,1.27-1.23c.71-.14,1.06-.41,1.64-.8l1.5-1.01c.24-.16.75-.36,1.15-.5l1.79-1.23,1.16-.81,3.06-2.03,2.26-1.48,2.15-1.45,2.36-1.26c.63-.71,1.33-1.18,2.11-1.47l2.07-1.38,1.45-.93,2.32-1.62,1.32-.65,1.47-1.01c.59-.4.93-.65,1.66-.79l1.26-1.27c.84-.31,1.47-.69,2.06-1.37l1.06-.32c.72-.65,1.39-1.08,2.17-1.54l1.15-.69,2.46-1.61,2.51-1.56,1.91-1.28,1.38-.69,2.25-1.41,1.28-1.22c.58-.17.98-.34,1.35-.59l1.47-1.03,1.94-1.3c.46-.18.83-.37,1.16-.58l2.45-1.6,2.07-1.35c.33-.21,1.06-.41,1.35-.77.5-.61.92-.85,1.54-1.16l1.41-.71,2.17-1.49,2.17-1.42,2.31-1.51,2.25-1.39,1.2-.71,1.09-.84c.35-.27.79-.42,1.38-.55l1.23-1.3c.74,0,1.18-.22,1.6-.88.26-.41,1.04-.59,1.37-.8l2.33-1.53,1.17-.64,3.91-2.58,1.92-1.25,2.55-1.46,2.05-1.38,2.13-1.42,1.87-1.25,2.33-1.47,2.98-1.86,2.17-1.48,3.03-1.7,1.54-1.1,2.06-1.34,5.49-3.54,1.83-1.13,2.26-1.61c.8-.11,1.54-.68,2.08-1.49.67-.07,1.14-.24,1.58-.82l2.3-.02,1.23,1.2c.5.49,1.16,1.03,1.28,1.43l-2.6,1.52-2.02,1.36-2.24,1.54-2.45,1.39-2,1.34-3.83,2.5-1.18.65-2.31,1.54c-.33.22-1.13.42-1.37.78-.44.67-.86.88-1.6.9l-1.24,1.29c-.72.15-1.04.33-1.53.64l-2.07,1.34-2.45,1.59-2.31,1.5-2.01,1.17-2.32,1.53-2.13,1.44-1.96,1.25-2.34,1.51c-.4.26-.73.46-1.27.66l-1.93,1.3-1.48,1.02c-.37.25-.77.42-1.36.58l-1.26,1.26c-.88.31-1.55.79-2.18,1.44-.89.02-1.56.78-2.11,1.45-.63.14-1.09.34-1.52.62l-2.37,1.51-2.31,1.54-2.13,1.45-1.23.67c-.75.41-1.45.9-2.16,1.53-.83.08-1.56.67-2.08,1.5-1.81,0-1.63,1.68-3.01,1.6l-1.89,1.31-.95.57-2.35,1.46-2.34,1.53c-.35.23-1.01.44-1.33.78-.5.55-.97.79-1.58,1.1l-1.42.72-2.14,1.51-2.17,1.45-2.17,1.41-2.52,1.53-.92.56-1.97,1.31-2.04,1.36c-.42.28-1.1.36-1.49.94-.33.5-.83.7-1.48.76l-1.24,1.25c-.65.19-1.08.32-1.51.62l-2.18,1.51-1.31.84-3.98,2.46-2.19,1.53-1.37.7-2.25,1.39-1.28,1.24c-.71.14-1.07.4-1.64.79l-1.5,1.02c-.26.18-.73.35-1.17.51l-2.02,1.46-6.11,4.05-2.26,1.46-2.36,1.54-1.25.8c-.53.34-.96.45-1.38.88s-1.06.63-1.51.92l-2.32,1.51-1.6,1.15-1.19.56-1.49,1c-.58.39-.94.66-1.65.81l-1.27,1.21-2.34,1.33-1.43.98c-.54.37-1.01.66-1.61.91l-1.07.74-3.07,2-1.57,1.02-2.2,1.49c-.42.28-.87.44-1.5.62l-1.25,1.25c-1.52-.1-1.36,1.43-3.04,1.76l-1.28.58-1.93,1.29-2.03,1.33-2.04,1.43-1.51.78-2.2,1.42-2.06,1.35-2.45,1.61-1.26.8-1.42.79-3.37,2.18-1.91,1.42-1.41.71c-.44.22-1.16.38-1.39.81-.39.72-1.23.75-1.61,1.03l-2.1,1.54-3.25,2.06-1.21.76-1.16.73-2.34,1.5-1.89,1.18c-.68.43-1.28.75-1.85,1.33l-.81.36c-.66.63-1.32,1.13-2.15,1.51l-1.49.68-1.25,1.26c-1.59-.06-1.52,1.62-2.87,1.59l-1.93,1.3-2.04,1.38c-.4.27-1.07.47-1.47.93s-.86.59-1.46.87l-1.27.77Z"/>
  <path d="M320.49,288.19l-1.05.4c-.64.62-1.45,1.03-2.13,1.49-.89.59-1.31,1.48-2.45.81s-2.14-1.05-3.07-2.25c.85-.89,1.62-1.4,2.58-2.02l2.45-1.56,2.05-1.39,2.17-1.4,2.04-1.36,2.45-1.63c.3-.2.7-.37,1.15-.51l1.94-1.31,1.91-1.29,2.25-1.48,2.12-1.51.92-.28,1.17-.84,2.42-1.61,2.05-1.31,3.92-2.59,1.18-.63,2.31-1.57c1.59-.18,1.43-1.79,2.98-1.65l1.24-1.3c.73-.15,1.06-.31,1.53-.64l2.03-1.41,1.02-.83c.46-.17,1.02-.4,1.32-.6l2.49-1.61,1.77-1.21,2.45-1.39,2.15-1.46,2.03-1.34,2.45-1.59c.32-.21.7-.4,1.15-.57l2.11-1.43,1.95-1.32c.35-.1.86-.27,1.07-.42l2.41-1.69c.74-.36,1.5-.89,2.12-1.46,1.28-.03,1.13-.9,2.83-1.8l1.66-.88,2.08-1.36,3.9-2.54,1.18-.69,2.22-1.47c.47-.31,1.2-.28,1.61-1.08.16-.31.96-.49,1.24-.68l2.54-1.67,1.54-1.07,1.07-.62c1.18-.55,1.92-1.37,3.5-2.35l3.35-2.09,2.06-1.31,2.16-1.48,1.3-.84,2.66-1.61,2.01-1.32,2.15-1.45,1.33-.63,1.46-1c.59-.4.95-.65,1.65-.8l1.27-1.24,2.13-1.28,2.45-1.6,2.21-1.45,1.51-.84,4.34-2.87,1.31-.72c.47-.26,1.11-.43,1.42-.84.46-.62.86-.8,1.59-.85l1.25-1.33c.76-.07,1.17-.23,1.61-.91.19-.3.97-.49,1.24-.67l3.4-2.33,1.11-.59,2.5-1.56,1.31-.85,1.51-1.06,1.96-1.22,2.56-1.68,1.53-.92,1.77-1.13,2.4-1.6c.33-.22,1.11-.42,1.37-.79.45-.65.86-.85,1.6-.89l1.23-1.28c.71-.16,1.05-.35,1.53-.66l2.08-1.35,2.35-1.48,1.44-.96,1.62-1.02,3.28-2.08,2.57-1.69,2.05-1.35,2.19-1.44c.42-.27.69-.42,1.39-.56l1.37-1.33c.59-.16.98-.32,1.35-.58l1.46-1.03,1.75-1.17,2.25-1.5,1.36-.74,1.82-1.18,1.15-.76,2.29-1.54,2.07-1.32,1.33-.65,2.39-1.61,2.42-1.43,1.15-1.12,1.52-.63c1.94-.81,1.62-1.8,3.01-1.73.6-.71,1.29-1.37,2.1-1.66l3.74-2.3,3.61-2.33c.72-.47,1.34-.81,2.06-1.42.49-.42,1.88-.42,2.47-.26.2.2.52.5.67.59l1.79,1.04c.03,1.49-.93,2.01-1.94,2.19l-2.32,1.58-1.34.59-1.27,1.23c-.54.16-.99.34-1.35.59l-2.76,1.92c-.35.24-.61.37-1.24.51l-1.38,1.3-1.47.69-2.1,1.33-2.45,1.6-2.28,1.33-5.82,3.84-1.16.63-2.33,1.58c-.39.18-1.02.45-1.39.74-.41.72-.99.88-1.6,1.02l-2.17,1.54-2.29,1.51-1.53,1.01-1.14.6-2.48,1.6-1.9,1.26-2.26,1.59-.82.39c-.64.64-1.34,1.1-2.16,1.51l-1.44.72-1.39,1.08c-.82.35-1.53.86-2.28,1.39l-1.44,1.01c-.58.4-.93.64-1.66.8l-1.24,1.23c-.66.17-1.05.36-1.5.66l-2.19,1.43-2.22,1.42-2.3,1.55-2.3,1.48-1.87,1.11-2.47,1.6-2.04,1.34-2.28,1.51c-.42.28-.78.43-1.42.6l-1.25,1.26c-1.55-.05-1.42,1.47-2.96,1.67l-3.27,2.26-1.24.66-2.38,1.48-1.27.85-2.09,1.33-1.48,1.07-1.51.86c-.49.28-.93.49-1.35.85-.45.4-.87.57-1.37.9l-2.42,1.55-1.62,1.18c-1.14-.07-.9.91-2.83,1.72l-1.5.63-1.28,1.2-2.12,1.3-2.49,1.56-1.2.74-1.2.73-3.8,2.51-2.57,1.68-2.08,1.35c-.41.27-.69.42-1.39.56l-1.37,1.34c-1.62-.02-1.53,1.66-2.86,1.58l-2.11,1.45-1.81,1.25-2.18,1.4-2.19,1.44c-.44.29-1.08.44-1.49.93-.36.44-.78.67-1.28.93l-1.68.88-1.9,1.31-2.49,1.6-1.11.55-1.96,1.33-2.12,1.44-1.29.59c-.48.22-1.12.44-1.4.81-.49.66-.84.86-1.63.89l-1.24,1.31c-.67.17-1.07.33-1.51.62l-2.07,1.35-2.57,1.7-2.21,1.42-2.04,1.34-1.4.86c-.46.29-1.1.39-1.42.84-.43.6-.91.82-1.56.9-.62.59-1.35,1.1-2.12,1.45l-1.8,1.28-1,.65c-1.43.16-1.08,1-2.86,1.69-.47.18-1.24.9-1.72,1.21l-2.33,1.49-2.04,1.37c-1.25.21-1.13.99-2.93,1.91l-1.41.72-2.17,1.45-3.91,2.54-1.17.7c-.81.4-1.56.95-2.26,1.6-.85.02-1.51.65-2,1.43-.71.05-1.3.24-1.72.91-.26.42-1.05.57-1.38.8l-2.32,1.55-1.05.56-3.95,2.57-2.15,1.4-2.42,1.62-1.14.79Z"/>
  <path d="M378.77,342.5l-.97.92c-.19.18-.61.52-.84.5.03,0-1.61-.8-2.23-1.26l-.85-.64-2.47-1.61c-.4-.26-1.12-.36-1.48-.92s-.8-.72-1.49-.79l-1.25-1.23c-.64-.19-1.07-.34-1.5-.63l-2.18-1.48-1.4-.76-1.49-.88-2.52-1.62-1.3-.84-2.17-1.47-2.2-1.38-1.46-.7-1.3-1.26c-.69-.16-1.07-.41-1.64-.8l-1.46-.99-1.67-1.13-.94-.57-2.65-1.59-2.02-1.36-2.2-1.26-2.15-1.45-2.16-1.44-2.17-1.42-2.32-1.5-2.36-1.47-.94-.58-1.91-1.3c-1.38.06-1.21-1.61-2.99-1.61-.54-.81-1.26-1.41-2.09-1.53l-2.36-1.73-3.53-2.2-1.94-1.23-2.34-1.53-2.17-1.43-2.18-1.45c-.4-.27-.7-.41-1.39-.56l-1.38-1.33c-.57-.17-.96-.34-1.34-.6l-3.07-2.08-2.4-1.61-1.23-.64-2.48-1.59-2.03-1.32-2.34-1.52-1.87-1.12-2.45-1.59-2.34-1.48-2.08-1.36c-.45-.3-.84-.47-1.52-.64l-1.24-1.26c-1.64.07-1.46-1.7-3.08-1.6-.61-.7-1.29-1.33-2.1-1.66l-3.71-2.33-1.91-1.24-2.31-1.5-2.45-1.59-1.77-1.19-4.01-2.41-1.7-1.15-2.32-1.54-1.75-1.18c-.77-.38-1.49-.9-2.24-1.53-.39-.16-1.08-.44-1.41-.66l-2.21-1.48c-.41-.17-1.04-.45-1.37-.72l-.92-.78-2.33-1.45-2.7-1.72-1.46-.97-2.44-1.42-1.16-1.17c-.75-.04-1.13-.23-1.61-.88-.29-.39-.93-.59-1.38-.82l-1.46-.73-1.49-.64-1.28-1.2-2.29-1.35-2.32-1.51-1.9-1.28-2.46-1.39-2.14-1.44-2.17-1.46-2.17-1.41-2.41-1.47-1.2-.73-1.74-1.2c-1.39.04-1.31-1.69-2.89-1.57l-1.25-1.3c-.66-.17-1.08-.33-1.51-.62l-2.18-1.45-2.17-1.44-2.21-1.4-2.3-1.55-.8-.39c-.67-.62-1.36-1.06-2.14-1.53l-1.2-.71-2.45-1.42-1.28-1.21-1.5-.62c-1.94-.8-1.69-1.79-2.83-1.73l-1.62-1.16-2.27-1.51-2.18-1.41-1.89-1.31-2.56-1.46-2.13-1.42-5.29-3.37-1.93-1.21-1.88-1.38,2.41-2.25c.47-.44,1.88-.46,2.35-.08.53.41,1.21.99,1.63,1.19l1.19.57,1.49,1c.58.39.95.66,1.65.81l1.27,1.21,2.33,1.33,1.44.96,1.51.97,1.29.82,2.17,1.42,2.19,1.42,2.46,1.6,2.08,1.35c.41.27.69.41,1.39.55l1.36,1.35c1.58-.05,1.51,1.63,2.86,1.59l1.95,1.33,2.14,1.4,3.02,1.84,1.08.69,1.44,1.07,2.22,1.42,2.28,1.29,2.15,1.48,2.23,1.4,2.3,1.36,1.27,1.22c1.37-.04,1.05.96,3.02,1.75l1.37.55,1.3,1.17,2.55,1.5,1.2.71,2.65,1.71,2.6,1.75,2.22,1.42,2.19,1.45c.4.27.91.48,1.48.63.61.67,1.41,1.31,2.27,1.5.63.83,1.27,1.28,2.14,1.53.32.23.67.4,1.21.54l1.82,1.35c.97-.07,1.29.89,1.93,1.23.79.42,1.56.98,2.31,1.52l1.41.71,2.21,1.47,1.43.99,1.34.84,3.35,2.1,1.79,1.14,2.27,1.49,2.29,1.56c.32.22,1.14.37,1.37.79.37.68,1.06.69,1.48.97l2.37,1.55,1.15.66,5.82,3.83,2.28,1.33,2.34,1.53,2.13,1.39,4.65,3.06c.26.17.64.34,1.02.48l1.94,1.31,1.61,1.14c.21.15.57.27,1.11.38l1.36,1.35c.67.15,1.05.33,1.51.63l2.17,1.45,2.18,1.45,2.21,1.41,2.31,1.55,1.14.77c.58.27,1.13.57,1.68.95l1.31.89,2.46,1.42,1.27,1.2,1.51.65c.48.2,1.1.41,1.38.85.38.6,1.14.69,1.51.96l2.08,1.51,3.37,2.16,1.3.67,1.35,1.14,2.21,1.4,2.47,1.36c.59.73,1.26,1.13,2,1.39l2.06,1.38,2.27,1.5,1.62,1.17c.56.2.93.33,1.31.59l1.37.94c.58.4.94.67,1.65.79l1.28,1.29c.85.28,1.56.82,2.17,1.41.58.14.98.4,1.45.71l1.66,1.1,1.15.7,2.46,1.61,2.21,1.42,2.16,1.43,2.19,1.45c.37.25.74.4,1.38.55l1.37,1.33c.65.17,1.01.37,1.5.7l3.48,2.35,1.96,1.34,1.11.56,2.37,1.51,2.04,1.37,2.4,1.38,2.09,1.37,1.46.69c.65.65,1.4,1.27,2.24,1.47l3.16,2.22c.97.68,1.69.53,2.89,2.29-.47.89-.92,1.18-1.74,1.2Z"/>
  <path d="M444.66,178.17l-2.46-1.38c-.78-.44-1.24-.8-1.96-1.28l-2.01-1.35-2.61-1.69-2.07-1.34c-.41-.27-.69-.42-1.39-.56l-1.36-1.35c-1.62.03-1.54-1.65-2.86-1.58l-1.96-1.37-.99-.6-2.26-1.39-2.32-1.52-1.9-1.27-2.56-1.47-2.04-1.38-2.17-1.42-2.36-1.51-1.09-.56-1.97-1.35-2.32-1.54-1.76-1.17-2.25-1.49-2.18-1.45-1.39-.72-1.46-1-1.33-.86-3.23-2.07-1.44-.94-2.19-1.44c-.44-.29-.86-.47-1.51-.63l-1.25-1.28c-.61-.07-1.17-.25-1.46-.72-.39-.62-1.07-.67-1.5-.95l-2.35-1.56c-.31-.2-.65-.34-1.21-.51l-1.65-1.26-2.22-1.41-2.17-1.42-1.88-1.3-2.56-1.46-2.04-1.39-2.25-1.48-3.16-1.94-2.36-1.5-1.5-1.09c-.21-.16-.83-.31-1.1-.39l-1.41-1.35c-.67-.15-.99-.29-1.38-.55l-2.18-1.45-2.17-1.46-1.57-1.02-3.09-1.97-1.33-.86-1.45-.99-1.21-.72-2.46-1.43-1.27-1.21c-.7-.15-1.07-.41-1.64-.8l-1.5-1.03c-.26-.18-.73-.36-1.16-.5l-2.11-1.45-1.81-1.25-2.18-1.39-2.15-1.47-2.19-1.25c-.83-.47-1.49-1.05-2.35-1.47-.64-.66-1.33-1.21-2.08-1.49l-2.05-1.35-2.49-1.58-1.29-1-1.32-.62-1.49-1.01c-.58-.39-.93-.66-1.65-.81l-1.27-1.22-2.3-1.35-2.34-1.54-1.18-.71-1.45-.96-1.34-.88-2.83-1.73-1.83-1.28-2.2-1.44c-.43-.29-.86-.47-1.51-.64l-1.25-1.24c-.64-.17-1.03-.37-1.49-.68l-1.33-.93-1.98-1.33-.92-.55-2.36-1.46-2.49-1.59c-.29-.18-.99-.39-1.21-.66-.51-.63-.91-.85-1.55-1.17l-1.42-.72-2.28-1.58-2.04-1.33-2.33-1.51-2.25-1.4-1.2-.73-1.74-1.2c-1.35.02-1.28-1.52-2.81-1.64l-1.99-1.39-1.8-1.26c-.52-.21-1.08-.47-1.55-.79l-4.35-2.9-1.94-1.28-1.67-.87c-1.64-.86-1.55-1.73-2.82-1.81-.69-.59-1.46-1.11-2.23-1.52l-1.89-1.31-1.98-1.33-.99-.62c-.6-.22-.99-.43-1.46-.75l-3.06-2.09-2.26-1.47-2.15-1.42c-1.01-.67-1.86-1.07-2.82-2.05l1.43-1.41c.28-.28.92-.51,1.44-.66l.91-.67c.22-.16.85.35.98.6l.96.49,2.15,1.52,2.14,1.39,2.34,1.52,2.32,1.5,2.08,1.35c.39.25.71.39,1.38.56l1.36,1.34c1.59-.05,1.51,1.64,2.87,1.59l1.93,1.35.9.55,2.37,1.45,2.3,1.55,2.18,1.42,2.04,1.32,2.31,1.55,1.26.88.93.28c.69.61,1.37.98,2.13,1.5l1.41.97,2.4,1.59,1.41.7,2.18,1.46,2.22,1.49c.32.22,1.06.35,1.35.77.39.57,1.01.76,1.49.96l3.75,2.46,2.97,1.87,1.44.95,2.19,1.41,1.2.72,2.56,1.49c.56.66,1.22,1.27,1.99,1.38l2.31,1.6c.28.19.69.34,1.21.48l1.66,1.28,2.22,1.42,2.17,1.41,2.02,1.44,1.55.78,2.2,1.4,1.38.93,4.74,3.02,2.18,1.41,2.33,1.55,1.73,1.17,2.26,1.49,2.05,1.35,2.59,1.7,1.74.99,2.32,1.51,2.45,1.6,2.06,1.35,2.22,1.37,1.29,1.22,1.5.63c1.9.79,1.59,1.67,2.97,1.79l1.71,1.24c.82.25,1.22.88,1.96,1.28l1.48.8,1.69,1.1,1.18.77,1.62,1.13,2.06,1.34,2.3,1.28c.8.45,1.21,1.05,2.11,1.37l1.38.92,2.39,1.67c.32.22,1.06.38,1.36.79.44.6.98.76,1.53,1.01l1.44.67,1.87,1.44,4.47,2.86,3.87,2.5,2.55,1.53,1.87,1.29,2.19,1.45c.38.25.72.41,1.38.55l1.38,1.31c.58.18.95.35,1.35.62l4.91,3.31,1.07.64,2.97,1.83,2.27,1.49,2.15,1.42,2.35,1.54,1.26.8c.51.32.98.46,1.39.88.43.46,1.04.64,1.49.92l2.24,1.43,1.66,1.28c1.37-.11,1.32,1.65,2.91,1.55l1.24,1.28c.68.17,1.06.34,1.5.62l2.26,1.44,2.34,1.52,1.18.73,1.48.92,3.23,2.02,2.03,1.41.92.57c.29.18.88.43,1.25.59.7.57,1.37,1.05,2.23,1.42l1.27,1.24c.71.15,1.07.42,1.65.81l1.37.93c.38.26.74.39,1.31.61l1.61,1.15,2.43,1.57,2.01,1.37c.78.38,1.52.89,2.13,1.52,1.13.35,2.12,1.09,2.59,2.04l-1.03.83-1.36.77-1.58.77-1.39-1.07Z"/>
  <path d="M368.98,348.54c-.3,1.25-3.47,2.47-3.32,2.56l-.54-.32-2.56-1.52-1.5-.87-2.51-1.66-2.6-1.69-2.07-1.34c-.41-.27-.69-.42-1.39-.56l-1.37-1.34c-1.6.03-1.54-1.63-2.88-1.6l-1.88-1.31-1.07-.63-2.25-1.4-2.47-1.58-1.11-.59-2.48-1.55-2-1.42-.8-.4-2.29-1.58-1.32-.64-2.24-1.51-1.62-1.17c-1.15.05-.9-.92-2.84-1.73l-1.5-.62-1.28-1.21-2.24-1.41c-.33-.2-1.06-.44-1.35-.77-.51-.56-1-.8-1.53-1.16l-2.03-1.35-3.49-2.24-1.2-.75-1.21-.74-2.37-1.47-2.14-1.42-2.36-1.57c-.28-.18-.71-.36-1.15-.51l-2.14-1.47-3.4-2.31-1.28-.7-1.25-.79-2.36-1.55-2.29-1.5-2.01-1.32-2.34-1.53-2.37-1.47-1.06-.62-1.77-1.25c-1.38.04-1.28-1.65-2.89-1.59l-1.36-1.35c-.69-.14-.98-.28-1.39-.55l-2.18-1.43-2.06-1.35-2.46-1.61-2.18-1.39-3.66-2.39c-.39-.18-.99-.46-1.36-.77l-1.95-1.24-3.5-2.37-1.17-.56-1.46-.97-1.47-.97-1.66-1.11c-.53-.36-.92-.46-1.39-.91-.39-.37-.94-.53-1.44-.84l-1.36-.84-2.18-1.5-2.19-1.39-4.19-2.79-2.53-1.57-1.22-.71-1.07-.83c-.36-.28-.79-.44-1.4-.57l-1.23-1.29c-.72-.03-1.17-.24-1.59-.88-.27-.41-1.05-.6-1.37-.81l-2.34-1.54-1.03-.56-3.95-2.56-2.15-1.46-1.68-.88c-.49-.26-.9-.49-1.27-.93-.41-.49-1.04-.65-1.49-.94l-2.17-1.4-1.85-1.25-2.39-1.6-1.58-.83-1.4-.69-3.39-2.29-1.94-1.23-1.37-.82-3.77-2.42-2.06-1.32-2.47-1.6-2.04-1.34-2.19-1.45c-.44-.29-.89-.52-1.51-.65-.61-.71-1.36-1.38-2.17-1.54l-2.31-1.58c-.71-.61-1.45-1.09-2.2-1.34l-4.87-3.18-2.12-1.39-2.31-1.54-1.29-.92-.98-.24c-.31-.31-.94-.97-1.31-1.17l-1.41-.74-3.16-2.17-2.16-1.45-1.37-.67-2.24-1.5-2.15-1.44-1.4-.71c-.76-.39-1.42-.85-2.04-1.4l-1.04-.92c-.52-.16-1.67-.62-1.79-1.2-.21-1.08,1.09-1.57,1.84-1.99.59-.33.94-.65,1.57-.69.54-.03,1.03.43,1.52.64,1.49.62,1.26,1.08,2.69,1.83l1.67.87,2.04,1.42,2.17,1.42,2.35,1.5,1.53,1.18c.53.16.9.3,1.21.51l2.34,1.57c.32.22,1.12.35,1.36.78.37.66,1.08.7,1.49.98l2.33,1.54,1.18.7,3.88,2.56,2.09,1.33,2.29,1.52,1.31.83c.43.27,1.18.35,1.5.89.35.59,1.08.66,1.5.93l2.06,1.37,2.54,1.69,1.52,1.04c.46.17.89.34,1.16.52l1.21.81,3.19,2.15,2.26,1.47c1.22.19,1.09.97,2.93,1.94l1.52.8,1.93,1.29,2.43,1.6,2.26,1.39.99.6,1.95,1.34,1.28.6c1.63.27,1.54,1.76,2.82,1.68l2.12,1.46,1.95,1.33c.45.19.9.4,1.26.64l4.49,2.98,2.06,1.33,1.27.89,1.06.33c.62.76,1.33,1.21,2.11,1.51l2.01,1.38,1.86,1.23,1.46,1.04c.35.25.78.41,1.35.57l1.23,1.24c.73.16,1.04.33,1.52.65l2.19,1.45c.65.43,1.41.87,1.97,1.43l.96.28c1.08,1.08,2.44,1.7,3.7,2.51l2.18,1.4,2.33,1.53,2.06,1.35,2.18,1.43c.46.3.83.48,1.51.65l1.24,1.29c.75.03,1.16.22,1.61.9.19.29.95.51,1.24.7l3.28,2.23,1.22.65,5.34,3.48,2.05,1.33,1.27.85,2.71,1.65,1.78,1.13,2.4,1.6c.34.22,1.11.41,1.37.79.43.65.87.85,1.6.88l1.24,1.29c.74.14,1.04.33,1.53.65l2.07,1.35,2.48,1.56,1.18.78,1.76,1.12,3.25,2.08,2.59,1.69,2.05,1.35,2.18,1.44c.47.31.81.49,1.51.64l1.24,1.26c.73.13,1.06.41,1.66.8l1.48.97,1.24.72,2.45,1.8,1.29.62,3.15,2.33,2.05,1.14,2.24,1.51,3.18,1.94,2.17,1.39,2.33,1.57,1.85,1.25c1.55.15,1.41,1.74,2.97,1.64l1.24,1.3c.67.17,1.07.34,1.52.63l2.19,1.44,1.46.95,3.22,2.09,1.26.65,1.48.82c.44.25,1.08.4,1.39.86.39.58,1.06.66,1.5.94l2.16,1.44,2.43,1.62c.27.18.9.4,1.25.5.77.71,1.73,1.6,2.63,2.04l.99.5,2.18,1.47c.75.25,1.52.81,2.13,1.48.57.19,1.11.42,1.59.73l1.45.96c.2.13.49.76.44.99Z"/>
  <path d="M268.7,249.2l-.5.69c-.38.49-.96,1.06-1.42,1.18-.75.18-1.51-.41-2.03-.61-.77-.29-1.45-.51-1.84-1.17-.33-.57.18-1.5.45-2.07l.92-1.9.66-1.86.04-7.05-4.32-.03c-.54.76-1.41,1.05-2.3.45l1.18-.89,1.46-.8,1.6-.72c.46-.21,1.14-.41,1.46-.66s.32-1.28.29-1.68l-.05-.61c-.01-.15.56-.33.59-.18l.16.75,1.16,1.48,4.18.12c.66.02,1.67,1.23,2.05,1.64v1.84s-1.93,0-1.93,0l-.47-.74h-2.65c-.32,1.06.15,1.75.44,2.64l.75,2.28.69,2.3c.34,1.14.44,2.95.04,4l-.62,1.62Z"/>
  <path d="M253.42,249.55c-.03,1.49-2.61,2.25-3.51,1.13-.47-1.83-.4-4.23.1-6.08l.45-1.67.51-2.07.79-2.65.28-2.06c1.4-.93-.03-2.43,1.32-4.02l.13-3.02,1.23.05c.16,1.23.38,2.73-.05,3.81-.28.7-.54,1.15-.51,1.93s-.2,1.33-.63,2.01l-.17,2.4c-.5.8-.68,1.36-.65,2.31.03,1-.35,1.79-.59,2.68-.27,1.05-.12,2.65-.13,3.68l1.17.28c.24.06.27.8.26,1.29Z"/>
  <path d="M288.36,248.78l-1.35-.03c-.72-1.03-1.31-1.67-2.27-2.61l2.3-4.8c.2-.41-.18-1.32.79-1.34l-.04-1.89c.57-.28,1.36-.33,2.15-.07l-.05,1.93c-1.2.46-.11,1.53-1.26,2.42-.09.66-.25,1.24-.79,1.66l-.05,3.77.6.32c.12.06.1.62-.03.61Z"/>
  <path d="M273.82,248.8l-2.13.06.05-2.65,1.42-1.34c0-.83.13-1.09.43-1.53l1-1.49.95-1.53,1.11-1.01c.13.72.23,1.88.04,2.49l-.65,2.07c.19.73-.13,1.28-.63,1.62.03,1.69-1.9,1.46-1.6,3.32Z"/>
  <path d="M280.26,248.03l-1.33-.83.09-3.13c.02-.76-.07-1.29-.49-1.99-.1-.85,1.51-2.24,2.39-1.89,1.56.62.83,2.18.53,3.21-.32,1.09-.35,2.52-.28,3.65l.05.92c.01.2-.79.17-.97.06Z"/>
  <path d="M300.26,247.48c.31,1.26-1.16,2.35-1.55,2.17-.23-.11-.54-.38-.81-.6l-.66-.53-1.2-1.35c-.44-1.21-.3-2.88-.05-4.13l.82-.06c.17-.01.47.35.41.48l-.56.75c-.15.2.05.86.23,1.05l1.86,2.02,1.52.21Z"/>
  <path d="M290.95,248.87c-.24-.01-.46-.9-.29-1.08l.68-.73c.15-.35.65-1.19.7-1.62l.33-3.24,1.15,1.02.21,3.36c.04.58-.29,1.34-.6,1.71-.4.49-1.3.62-2.18.57Z"/>
  <path d="M305.71,246.98c1.25.34,1.26,1.21.89,1.96-.87-.08-1.33-.29-1.75-.83-.3-.39-.3-1.29-.28-1.91l.03-.86c0-.16.58-.12.57-.07l.55,1.71Z"/>
  <path d="M272.44,231.29l-.6.06c-.31.03.32-.81-.72-1.69-.25-.21-.16-1.01.01-1.4,1.05.54,1.42,1.26,1.39,2.19l.46.18c.13.05.3.57.16.58l-.7.07Z"/>
  <path d="M310.74,244.45c.69.16.5,2.26.22,2.24l-.98-.07c-.22-.02-.22-.61-.23-.87l-.05-1.12c-.01-.23.8-.23,1.03-.17Z"/>
  <rect x="300.9" y="242.25" width="1.53" height="1.55" transform="translate(45.8 533.88) rotate(-87.52)"/>
</svg>